<svg width="540" height="268" viewBox="0 0 540 268" fill="none" xmlns="http://www.w3.org/2000/svg">
<g clip-path="url(#clip0_106_3455)">
<rect width="540" height="268" rx="10" fill="#FF5454" fill-opacity="0.8"/>
<ellipse cx="527" cy="86.5" rx="84" ry="84.5" fill="white" fill-opacity="0.25"/>
<path d="M494.62 19.832L490.524 31H487.804L483.708 19.832H486.108L489.18 28.712L492.236 19.832H494.62ZM498.203 19.832V31H495.963V19.832H498.203ZM504.273 31.112C503.494 31.112 502.79 30.9787 502.161 30.712C501.542 30.4453 501.051 30.0613 500.689 29.56C500.326 29.0587 500.139 28.4667 500.129 27.784H502.529C502.561 28.2427 502.721 28.6053 503.009 28.872C503.307 29.1387 503.713 29.272 504.225 29.272C504.747 29.272 505.158 29.1493 505.457 28.904C505.755 28.648 505.905 28.3173 505.905 27.912C505.905 27.5813 505.803 27.3093 505.601 27.096C505.398 26.8827 505.142 26.7173 504.833 26.6C504.534 26.472 504.118 26.3333 503.585 26.184C502.859 25.9707 502.267 25.7627 501.809 25.56C501.361 25.3467 500.971 25.032 500.641 24.616C500.321 24.1893 500.161 23.624 500.161 22.92C500.161 22.2587 500.326 21.6827 500.657 21.192C500.987 20.7013 501.451 20.328 502.049 20.072C502.646 19.8053 503.329 19.672 504.097 19.672C505.249 19.672 506.182 19.9547 506.897 20.52C507.622 21.0747 508.022 21.8533 508.097 22.856H505.633C505.611 22.472 505.446 22.1573 505.137 21.912C504.838 21.656 504.438 21.528 503.937 21.528C503.499 21.528 503.147 21.64 502.881 21.864C502.625 22.088 502.497 22.4133 502.497 22.84C502.497 23.1387 502.593 23.3893 502.785 23.592C502.987 23.784 503.233 23.944 503.521 24.072C503.819 24.1893 504.235 24.328 504.769 24.488C505.494 24.7013 506.086 24.9147 506.545 25.128C507.003 25.3413 507.398 25.6613 507.729 26.088C508.059 26.5147 508.225 27.0747 508.225 27.768C508.225 28.3653 508.07 28.92 507.76 29.432C507.451 29.944 506.998 30.3547 506.401 30.664C505.803 30.9627 505.094 31.112 504.273 31.112ZM517.015 28.872H512.567L511.831 31H509.479L513.495 19.816H516.103L520.119 31H517.751L517.015 28.872ZM516.407 27.08L514.791 22.408L513.174 27.08H516.407Z" fill="white"/>
<path d="M19.166 174.772C19.166 172.235 19.6207 170.247 20.53 168.81C21.454 167.373 22.9793 166.654 25.106 166.654C27.2327 166.654 28.7507 167.373 29.66 168.81C30.584 170.247 31.046 172.235 31.046 174.772C31.046 177.324 30.584 179.326 29.66 180.778C28.7507 182.23 27.2327 182.956 25.106 182.956C22.9793 182.956 21.454 182.23 20.53 180.778C19.6207 179.326 19.166 177.324 19.166 174.772ZM28.01 174.772C28.01 173.687 27.9367 172.777 27.79 172.044C27.658 171.296 27.3793 170.687 26.954 170.218C26.5433 169.749 25.9273 169.514 25.106 169.514C24.2847 169.514 23.6613 169.749 23.236 170.218C22.8253 170.687 22.5467 171.296 22.4 172.044C22.268 172.777 22.202 173.687 22.202 174.772C22.202 175.887 22.268 176.825 22.4 177.588C22.532 178.336 22.8107 178.945 23.236 179.414C23.6613 179.869 24.2847 180.096 25.106 180.096C25.9273 180.096 26.5507 179.869 26.976 179.414C27.4013 178.945 27.68 178.336 27.812 177.588C27.944 176.825 28.01 175.887 28.01 174.772ZM34.4887 174.772C34.4887 172.235 34.9433 170.247 35.8527 168.81C36.7767 167.373 38.302 166.654 40.4287 166.654C42.5553 166.654 44.0733 167.373 44.9827 168.81C45.9067 170.247 46.3687 172.235 46.3687 174.772C46.3687 177.324 45.9067 179.326 44.9827 180.778C44.0733 182.23 42.5553 182.956 40.4287 182.956C38.302 182.956 36.7767 182.23 35.8527 180.778C34.9433 179.326 34.4887 177.324 34.4887 174.772ZM43.3327 174.772C43.3327 173.687 43.2593 172.777 43.1127 172.044C42.9807 171.296 42.702 170.687 42.2767 170.218C41.866 169.749 41.25 169.514 40.4287 169.514C39.6073 169.514 38.984 169.749 38.5587 170.218C38.148 170.687 37.8693 171.296 37.7227 172.044C37.5907 172.777 37.5247 173.687 37.5247 174.772C37.5247 175.887 37.5907 176.825 37.7227 177.588C37.8547 178.336 38.1333 178.945 38.5587 179.414C38.984 179.869 39.6073 180.096 40.4287 180.096C41.25 180.096 41.8733 179.869 42.2987 179.414C42.724 178.945 43.0027 178.336 43.1347 177.588C43.2667 176.825 43.3327 175.887 43.3327 174.772ZM49.8113 174.772C49.8113 172.235 50.266 170.247 51.1753 168.81C52.0993 167.373 53.6246 166.654 55.7513 166.654C57.878 166.654 59.396 167.373 60.3053 168.81C61.2293 170.247 61.6913 172.235 61.6913 174.772C61.6913 177.324 61.2293 179.326 60.3053 180.778C59.396 182.23 57.878 182.956 55.7513 182.956C53.6246 182.956 52.0993 182.23 51.1753 180.778C50.266 179.326 49.8113 177.324 49.8113 174.772ZM58.6553 174.772C58.6553 173.687 58.582 172.777 58.4353 172.044C58.3033 171.296 58.0246 170.687 57.5993 170.218C57.1886 169.749 56.5726 169.514 55.7513 169.514C54.93 169.514 54.3066 169.749 53.8813 170.218C53.4706 170.687 53.192 171.296 53.0453 172.044C52.9133 172.777 52.8473 173.687 52.8473 174.772C52.8473 175.887 52.9133 176.825 53.0453 177.588C53.1773 178.336 53.456 178.945 53.8813 179.414C54.3066 179.869 54.93 180.096 55.7513 180.096C56.5726 180.096 57.196 179.869 57.6213 179.414C58.0466 178.945 58.3253 178.336 58.4573 177.588C58.5893 176.825 58.6553 175.887 58.6553 174.772ZM65.134 174.772C65.134 172.235 65.5886 170.247 66.498 168.81C67.422 167.373 68.9473 166.654 71.074 166.654C73.2006 166.654 74.7186 167.373 75.628 168.81C76.552 170.247 77.014 172.235 77.014 174.772C77.014 177.324 76.552 179.326 75.628 180.778C74.7186 182.23 73.2006 182.956 71.074 182.956C68.9473 182.956 67.422 182.23 66.498 180.778C65.5886 179.326 65.134 177.324 65.134 174.772ZM73.978 174.772C73.978 173.687 73.9046 172.777 73.758 172.044C73.626 171.296 73.3473 170.687 72.922 170.218C72.5113 169.749 71.8953 169.514 71.074 169.514C70.2526 169.514 69.6293 169.749 69.204 170.218C68.7933 170.687 68.5146 171.296 68.368 172.044C68.236 172.777 68.17 173.687 68.17 174.772C68.17 175.887 68.236 176.825 68.368 177.588C68.5 178.336 68.7786 178.945 69.204 179.414C69.6293 179.869 70.2526 180.096 71.074 180.096C71.8953 180.096 72.5186 179.869 72.944 179.414C73.3693 178.945 73.648 178.336 73.78 177.588C73.912 176.825 73.978 175.887 73.978 174.772ZM86.7988 174.772C86.7988 172.235 87.2535 170.247 88.1628 168.81C89.0868 167.373 90.6121 166.654 92.7388 166.654C94.8655 166.654 96.3835 167.373 97.2928 168.81C98.2168 170.247 98.6788 172.235 98.6788 174.772C98.6788 177.324 98.2168 179.326 97.2928 180.778C96.3835 182.23 94.8655 182.956 92.7388 182.956C90.6121 182.956 89.0868 182.23 88.1628 180.778C87.2535 179.326 86.7988 177.324 86.7988 174.772ZM95.6428 174.772C95.6428 173.687 95.5695 172.777 95.4228 172.044C95.2908 171.296 95.0121 170.687 94.5868 170.218C94.1761 169.749 93.5601 169.514 92.7388 169.514C91.9175 169.514 91.2941 169.749 90.8688 170.218C90.4581 170.687 90.1795 171.296 90.0328 172.044C89.9008 172.777 89.8348 173.687 89.8348 174.772C89.8348 175.887 89.9008 176.825 90.0328 177.588C90.1648 178.336 90.4435 178.945 90.8688 179.414C91.2941 179.869 91.9175 180.096 92.7388 180.096C93.5601 180.096 94.1835 179.869 94.6088 179.414C95.0341 178.945 95.3128 178.336 95.4448 177.588C95.5768 176.825 95.6428 175.887 95.6428 174.772ZM102.121 174.772C102.121 172.235 102.576 170.247 103.485 168.81C104.409 167.373 105.935 166.654 108.061 166.654C110.188 166.654 111.706 167.373 112.615 168.81C113.539 170.247 114.001 172.235 114.001 174.772C114.001 177.324 113.539 179.326 112.615 180.778C111.706 182.23 110.188 182.956 108.061 182.956C105.935 182.956 104.409 182.23 103.485 180.778C102.576 179.326 102.121 177.324 102.121 174.772ZM110.965 174.772C110.965 173.687 110.892 172.777 110.745 172.044C110.613 171.296 110.335 170.687 109.909 170.218C109.499 169.749 108.883 169.514 108.061 169.514C107.24 169.514 106.617 169.749 106.191 170.218C105.781 170.687 105.502 171.296 105.355 172.044C105.223 172.777 105.157 173.687 105.157 174.772C105.157 175.887 105.223 176.825 105.355 177.588C105.487 178.336 105.766 178.945 106.191 179.414C106.617 179.869 107.24 180.096 108.061 180.096C108.883 180.096 109.506 179.869 109.931 179.414C110.357 178.945 110.635 178.336 110.767 177.588C110.899 176.825 110.965 175.887 110.965 174.772ZM117.444 174.772C117.444 172.235 117.899 170.247 118.808 168.81C119.732 167.373 121.257 166.654 123.384 166.654C125.511 166.654 127.029 167.373 127.938 168.81C128.862 170.247 129.324 172.235 129.324 174.772C129.324 177.324 128.862 179.326 127.938 180.778C127.029 182.23 125.511 182.956 123.384 182.956C121.257 182.956 119.732 182.23 118.808 180.778C117.899 179.326 117.444 177.324 117.444 174.772ZM126.288 174.772C126.288 173.687 126.215 172.777 126.068 172.044C125.936 171.296 125.657 170.687 125.232 170.218C124.821 169.749 124.205 169.514 123.384 169.514C122.563 169.514 121.939 169.749 121.514 170.218C121.103 170.687 120.825 171.296 120.678 172.044C120.546 172.777 120.48 173.687 120.48 174.772C120.48 175.887 120.546 176.825 120.678 177.588C120.81 178.336 121.089 178.945 121.514 179.414C121.939 179.869 122.563 180.096 123.384 180.096C124.205 180.096 124.829 179.869 125.254 179.414C125.679 178.945 125.958 178.336 126.09 177.588C126.222 176.825 126.288 175.887 126.288 174.772ZM132.767 174.772C132.767 172.235 133.221 170.247 134.131 168.81C135.055 167.373 136.58 166.654 138.707 166.654C140.833 166.654 142.351 167.373 143.261 168.81C144.185 170.247 144.647 172.235 144.647 174.772C144.647 177.324 144.185 179.326 143.261 180.778C142.351 182.23 140.833 182.956 138.707 182.956C136.58 182.956 135.055 182.23 134.131 180.778C133.221 179.326 132.767 177.324 132.767 174.772ZM141.611 174.772C141.611 173.687 141.537 172.777 141.391 172.044C141.259 171.296 140.98 170.687 140.555 170.218C140.144 169.749 139.528 169.514 138.707 169.514C137.885 169.514 137.262 169.749 136.837 170.218C136.426 170.687 136.147 171.296 136.001 172.044C135.869 172.777 135.803 173.687 135.803 174.772C135.803 175.887 135.869 176.825 136.001 177.588C136.133 178.336 136.411 178.945 136.837 179.414C137.262 179.869 137.885 180.096 138.707 180.096C139.528 180.096 140.151 179.869 140.577 179.414C141.002 178.945 141.281 178.336 141.413 177.588C141.545 176.825 141.611 175.887 141.611 174.772ZM154.432 174.772C154.432 172.235 154.886 170.247 155.796 168.81C156.72 167.373 158.245 166.654 160.372 166.654C162.498 166.654 164.016 167.373 164.926 168.81C165.85 170.247 166.312 172.235 166.312 174.772C166.312 177.324 165.85 179.326 164.926 180.778C164.016 182.23 162.498 182.956 160.372 182.956C158.245 182.956 156.72 182.23 155.796 180.778C154.886 179.326 154.432 177.324 154.432 174.772ZM163.276 174.772C163.276 173.687 163.202 172.777 163.056 172.044C162.924 171.296 162.645 170.687 162.22 170.218C161.809 169.749 161.193 169.514 160.372 169.514C159.55 169.514 158.927 169.749 158.502 170.218C158.091 170.687 157.812 171.296 157.666 172.044C157.534 172.777 157.468 173.687 157.468 174.772C157.468 175.887 157.534 176.825 157.666 177.588C157.798 178.336 158.076 178.945 158.502 179.414C158.927 179.869 159.55 180.096 160.372 180.096C161.193 180.096 161.816 179.869 162.242 179.414C162.667 178.945 162.946 178.336 163.078 177.588C163.21 176.825 163.276 175.887 163.276 174.772ZM169.754 174.772C169.754 172.235 170.209 170.247 171.118 168.81C172.042 167.373 173.568 166.654 175.694 166.654C177.821 166.654 179.339 167.373 180.248 168.81C181.172 170.247 181.634 172.235 181.634 174.772C181.634 177.324 181.172 179.326 180.248 180.778C179.339 182.23 177.821 182.956 175.694 182.956C173.568 182.956 172.042 182.23 171.118 180.778C170.209 179.326 169.754 177.324 169.754 174.772ZM178.598 174.772C178.598 173.687 178.525 172.777 178.378 172.044C178.246 171.296 177.968 170.687 177.542 170.218C177.132 169.749 176.516 169.514 175.694 169.514C174.873 169.514 174.25 169.749 173.824 170.218C173.414 170.687 173.135 171.296 172.988 172.044C172.856 172.777 172.79 173.687 172.79 174.772C172.79 175.887 172.856 176.825 172.988 177.588C173.12 178.336 173.399 178.945 173.824 179.414C174.25 179.869 174.873 180.096 175.694 180.096C176.516 180.096 177.139 179.869 177.564 179.414C177.99 178.945 178.268 178.336 178.4 177.588C178.532 176.825 178.598 175.887 178.598 174.772ZM185.077 174.772C185.077 172.235 185.532 170.247 186.441 168.81C187.365 167.373 188.89 166.654 191.017 166.654C193.144 166.654 194.662 167.373 195.571 168.81C196.495 170.247 196.957 172.235 196.957 174.772C196.957 177.324 196.495 179.326 195.571 180.778C194.662 182.23 193.144 182.956 191.017 182.956C188.89 182.956 187.365 182.23 186.441 180.778C185.532 179.326 185.077 177.324 185.077 174.772ZM193.921 174.772C193.921 173.687 193.848 172.777 193.701 172.044C193.569 171.296 193.29 170.687 192.865 170.218C192.454 169.749 191.838 169.514 191.017 169.514C190.196 169.514 189.572 169.749 189.147 170.218C188.736 170.687 188.458 171.296 188.311 172.044C188.179 172.777 188.113 173.687 188.113 174.772C188.113 175.887 188.179 176.825 188.311 177.588C188.443 178.336 188.722 178.945 189.147 179.414C189.572 179.869 190.196 180.096 191.017 180.096C191.838 180.096 192.462 179.869 192.887 179.414C193.312 178.945 193.591 178.336 193.723 177.588C193.855 176.825 193.921 175.887 193.921 174.772ZM200.4 174.772C200.4 172.235 200.854 170.247 201.764 168.81C202.688 167.373 204.213 166.654 206.34 166.654C208.466 166.654 209.984 167.373 210.894 168.81C211.818 170.247 212.28 172.235 212.28 174.772C212.28 177.324 211.818 179.326 210.894 180.778C209.984 182.23 208.466 182.956 206.34 182.956C204.213 182.956 202.688 182.23 201.764 180.778C200.854 179.326 200.4 177.324 200.4 174.772ZM209.244 174.772C209.244 173.687 209.17 172.777 209.024 172.044C208.892 171.296 208.613 170.687 208.188 170.218C207.777 169.749 207.161 169.514 206.34 169.514C205.518 169.514 204.895 169.749 204.47 170.218C204.059 170.687 203.78 171.296 203.634 172.044C203.502 172.777 203.436 173.687 203.436 174.772C203.436 175.887 203.502 176.825 203.634 177.588C203.766 178.336 204.044 178.945 204.47 179.414C204.895 179.869 205.518 180.096 206.34 180.096C207.161 180.096 207.784 179.869 208.21 179.414C208.635 178.945 208.914 178.336 209.046 177.588C209.178 176.825 209.244 175.887 209.244 174.772ZM222.064 174.772C222.064 172.235 222.519 170.247 223.428 168.81C224.352 167.373 225.878 166.654 228.004 166.654C230.131 166.654 231.649 167.373 232.558 168.81C233.482 170.247 233.944 172.235 233.944 174.772C233.944 177.324 233.482 179.326 232.558 180.778C231.649 182.23 230.131 182.956 228.004 182.956C225.878 182.956 224.352 182.23 223.428 180.778C222.519 179.326 222.064 177.324 222.064 174.772ZM230.908 174.772C230.908 173.687 230.835 172.777 230.688 172.044C230.556 171.296 230.278 170.687 229.852 170.218C229.442 169.749 228.826 169.514 228.004 169.514C227.183 169.514 226.56 169.749 226.134 170.218C225.724 170.687 225.445 171.296 225.298 172.044C225.166 172.777 225.1 173.687 225.1 174.772C225.1 175.887 225.166 176.825 225.298 177.588C225.43 178.336 225.709 178.945 226.134 179.414C226.56 179.869 227.183 180.096 228.004 180.096C228.826 180.096 229.449 179.869 229.874 179.414C230.3 178.945 230.578 178.336 230.71 177.588C230.842 176.825 230.908 175.887 230.908 174.772ZM237.387 174.772C237.387 172.235 237.842 170.247 238.751 168.81C239.675 167.373 241.2 166.654 243.327 166.654C245.454 166.654 246.972 167.373 247.881 168.81C248.805 170.247 249.267 172.235 249.267 174.772C249.267 177.324 248.805 179.326 247.881 180.778C246.972 182.23 245.454 182.956 243.327 182.956C241.2 182.956 239.675 182.23 238.751 180.778C237.842 179.326 237.387 177.324 237.387 174.772ZM246.231 174.772C246.231 173.687 246.158 172.777 246.011 172.044C245.879 171.296 245.6 170.687 245.175 170.218C244.764 169.749 244.148 169.514 243.327 169.514C242.506 169.514 241.882 169.749 241.457 170.218C241.046 170.687 240.768 171.296 240.621 172.044C240.489 172.777 240.423 173.687 240.423 174.772C240.423 175.887 240.489 176.825 240.621 177.588C240.753 178.336 241.032 178.945 241.457 179.414C241.882 179.869 242.506 180.096 243.327 180.096C244.148 180.096 244.772 179.869 245.197 179.414C245.622 178.945 245.901 178.336 246.033 177.588C246.165 176.825 246.231 175.887 246.231 174.772ZM252.71 174.772C252.71 172.235 253.164 170.247 254.074 168.81C254.998 167.373 256.523 166.654 258.65 166.654C260.776 166.654 262.294 167.373 263.204 168.81C264.128 170.247 264.59 172.235 264.59 174.772C264.59 177.324 264.128 179.326 263.204 180.778C262.294 182.23 260.776 182.956 258.65 182.956C256.523 182.956 254.998 182.23 254.074 180.778C253.164 179.326 252.71 177.324 252.71 174.772ZM261.554 174.772C261.554 173.687 261.48 172.777 261.334 172.044C261.202 171.296 260.923 170.687 260.498 170.218C260.087 169.749 259.471 169.514 258.65 169.514C257.828 169.514 257.205 169.749 256.78 170.218C256.369 170.687 256.09 171.296 255.944 172.044C255.812 172.777 255.746 173.687 255.746 174.772C255.746 175.887 255.812 176.825 255.944 177.588C256.076 178.336 256.354 178.945 256.78 179.414C257.205 179.869 257.828 180.096 258.65 180.096C259.471 180.096 260.094 179.869 260.52 179.414C260.945 178.945 261.224 178.336 261.356 177.588C261.488 176.825 261.554 175.887 261.554 174.772ZM268.032 174.772C268.032 172.235 268.487 170.247 269.396 168.81C270.32 167.373 271.846 166.654 273.972 166.654C276.099 166.654 277.617 167.373 278.526 168.81C279.45 170.247 279.912 172.235 279.912 174.772C279.912 177.324 279.45 179.326 278.526 180.778C277.617 182.23 276.099 182.956 273.972 182.956C271.846 182.956 270.32 182.23 269.396 180.778C268.487 179.326 268.032 177.324 268.032 174.772ZM276.876 174.772C276.876 173.687 276.803 172.777 276.656 172.044C276.524 171.296 276.246 170.687 275.82 170.218C275.41 169.749 274.794 169.514 273.972 169.514C273.151 169.514 272.528 169.749 272.102 170.218C271.692 170.687 271.413 171.296 271.266 172.044C271.134 172.777 271.068 173.687 271.068 174.772C271.068 175.887 271.134 176.825 271.266 177.588C271.398 178.336 271.677 178.945 272.102 179.414C272.528 179.869 273.151 180.096 273.972 180.096C274.794 180.096 275.417 179.869 275.842 179.414C276.268 178.945 276.546 178.336 276.678 177.588C276.81 176.825 276.876 175.887 276.876 174.772Z" fill="white"/>
<path d="M18.9256 210.161C18.9256 209.413 19.0943 208.742 19.4316 208.148C19.769 207.547 20.2273 207.077 20.8066 206.74C21.3933 206.403 22.0423 206.234 22.7536 206.234C23.5896 206.234 24.3193 206.436 24.9426 206.839C25.566 207.242 26.0206 207.814 26.3066 208.555H25.1076C24.895 208.093 24.587 207.737 24.1836 207.488C23.7876 207.239 23.311 207.114 22.7536 207.114C22.2183 207.114 21.738 207.239 21.3126 207.488C20.8873 207.737 20.5536 208.093 20.3116 208.555C20.0696 209.01 19.9486 209.545 19.9486 210.161C19.9486 210.77 20.0696 211.305 20.3116 211.767C20.5536 212.222 20.8873 212.574 21.3126 212.823C21.738 213.072 22.2183 213.197 22.7536 213.197C23.311 213.197 23.7876 213.076 24.1836 212.834C24.587 212.585 24.895 212.229 25.1076 211.767H26.3066C26.0206 212.5 25.566 213.069 24.9426 213.472C24.3193 213.868 23.5896 214.066 22.7536 214.066C22.0423 214.066 21.3933 213.901 20.8066 213.571C20.2273 213.234 19.769 212.768 19.4316 212.174C19.0943 211.58 18.9256 210.909 18.9256 210.161ZM27.4227 210.964C27.4227 210.348 27.5474 209.809 27.7967 209.347C28.046 208.878 28.387 208.515 28.8197 208.258C29.2597 208.001 29.7474 207.873 30.2827 207.873C30.8107 207.873 31.269 207.987 31.6577 208.214C32.0464 208.441 32.336 208.727 32.5267 209.072V207.972H33.5387V214H32.5267V212.878C32.3287 213.23 32.0317 213.523 31.6357 213.758C31.247 213.985 30.7924 214.099 30.2717 214.099C29.7364 214.099 29.2524 213.967 28.8197 213.703C28.387 213.439 28.046 213.069 27.7967 212.592C27.5474 212.115 27.4227 211.573 27.4227 210.964ZM32.5267 210.975C32.5267 210.52 32.435 210.124 32.2517 209.787C32.0684 209.45 31.819 209.193 31.5037 209.017C31.1957 208.834 30.8547 208.742 30.4807 208.742C30.1067 208.742 29.7657 208.83 29.4577 209.006C29.1497 209.182 28.904 209.439 28.7207 209.776C28.5374 210.113 28.4457 210.509 28.4457 210.964C28.4457 211.426 28.5374 211.829 28.7207 212.174C28.904 212.511 29.1497 212.772 29.4577 212.955C29.7657 213.131 30.1067 213.219 30.4807 213.219C30.8547 213.219 31.1957 213.131 31.5037 212.955C31.819 212.772 32.0684 212.511 32.2517 212.174C32.435 211.829 32.5267 211.43 32.5267 210.975ZM36.2313 208.951C36.4073 208.606 36.6566 208.339 36.9793 208.148C37.3093 207.957 37.709 207.862 38.1783 207.862V208.896H37.9143C36.7923 208.896 36.2313 209.505 36.2313 210.722V214H35.2303V207.972H36.2313V208.951ZM38.9598 210.964C38.9598 210.348 39.0845 209.809 39.3338 209.347C39.5831 208.878 39.9241 208.515 40.3568 208.258C40.7968 208.001 41.2881 207.873 41.8308 207.873C42.3002 207.873 42.7365 207.983 43.1398 208.203C43.5431 208.416 43.8511 208.698 44.0638 209.05V205.86H45.0758V214H44.0638V212.867C43.8658 213.226 43.5725 213.523 43.1838 213.758C42.7951 213.985 42.3405 214.099 41.8198 214.099C41.2845 214.099 40.7968 213.967 40.3568 213.703C39.9241 213.439 39.5831 213.069 39.3338 212.592C39.0845 212.115 38.9598 211.573 38.9598 210.964ZM44.0638 210.975C44.0638 210.52 43.9722 210.124 43.7888 209.787C43.6055 209.45 43.3561 209.193 43.0408 209.017C42.7328 208.834 42.3918 208.742 42.0178 208.742C41.6438 208.742 41.3028 208.83 40.9948 209.006C40.6868 209.182 40.4411 209.439 40.2578 209.776C40.0745 210.113 39.9828 210.509 39.9828 210.964C39.9828 211.426 40.0745 211.829 40.2578 212.174C40.4411 212.511 40.6868 212.772 40.9948 212.955C41.3028 213.131 41.6438 213.219 42.0178 213.219C42.3918 213.219 42.7328 213.131 43.0408 212.955C43.3561 212.772 43.6055 212.511 43.7888 212.174C43.9722 211.829 44.0638 211.43 44.0638 210.975ZM52.692 207.862C53.1467 207.862 53.5574 207.961 53.924 208.159C54.2907 208.35 54.5767 208.639 54.782 209.028C54.9947 209.417 55.101 209.89 55.101 210.447V214H54.111V210.59C54.111 209.989 53.9607 209.53 53.66 209.215C53.3594 208.892 52.9487 208.731 52.428 208.731C51.9 208.731 51.4784 208.896 51.163 209.226C50.855 209.556 50.701 210.036 50.701 210.667V214H49.7V205.86H50.701V208.83C50.899 208.522 51.1704 208.284 51.515 208.115C51.867 207.946 52.2594 207.862 52.692 207.862ZM59.3652 214.099C58.8005 214.099 58.2872 213.971 57.8252 213.714C57.3705 213.457 57.0112 213.094 56.7472 212.625C56.4905 212.148 56.3622 211.598 56.3622 210.975C56.3622 210.359 56.4942 209.816 56.7582 209.347C57.0295 208.87 57.3962 208.507 57.8582 208.258C58.3202 208.001 58.8372 207.873 59.4092 207.873C59.9812 207.873 60.4982 208.001 60.9602 208.258C61.4222 208.507 61.7852 208.867 62.0492 209.336C62.3205 209.805 62.4562 210.352 62.4562 210.975C62.4562 211.598 62.3168 212.148 62.0382 212.625C61.7668 213.094 61.3965 213.457 60.9272 213.714C60.4578 213.971 59.9372 214.099 59.3652 214.099ZM59.3652 213.219C59.7245 213.219 60.0618 213.135 60.3772 212.966C60.6925 212.797 60.9455 212.544 61.1362 212.207C61.3342 211.87 61.4332 211.459 61.4332 210.975C61.4332 210.491 61.3378 210.08 61.1472 209.743C60.9565 209.406 60.7072 209.156 60.3992 208.995C60.0912 208.826 59.7575 208.742 59.3982 208.742C59.0315 208.742 58.6942 208.826 58.3862 208.995C58.0855 209.156 57.8435 209.406 57.6602 209.743C57.4768 210.08 57.3852 210.491 57.3852 210.975C57.3852 211.466 57.4732 211.881 57.6492 212.218C57.8325 212.555 58.0745 212.808 58.3752 212.977C58.6758 213.138 59.0058 213.219 59.3652 213.219ZM64.7733 205.86V214H63.7723V205.86H64.7733ZM66.1053 210.964C66.1053 210.348 66.23 209.809 66.4793 209.347C66.7287 208.878 67.0697 208.515 67.5023 208.258C67.9423 208.001 68.4337 207.873 68.9763 207.873C69.4457 207.873 69.882 207.983 70.2853 208.203C70.6887 208.416 70.9967 208.698 71.2093 209.05V205.86H72.2213V214H71.2093V212.867C71.0113 213.226 70.718 213.523 70.3293 213.758C69.9407 213.985 69.486 214.099 68.9653 214.099C68.43 214.099 67.9423 213.967 67.5023 213.703C67.0697 213.439 66.7287 213.069 66.4793 212.592C66.23 212.115 66.1053 211.573 66.1053 210.964ZM71.2093 210.975C71.2093 210.52 71.1177 210.124 70.9343 209.787C70.751 209.45 70.5017 209.193 70.1863 209.017C69.8783 208.834 69.5373 208.742 69.1633 208.742C68.7893 208.742 68.4483 208.83 68.1403 209.006C67.8323 209.182 67.5867 209.439 67.4033 209.776C67.22 210.113 67.1283 210.509 67.1283 210.964C67.1283 211.426 67.22 211.829 67.4033 212.174C67.5867 212.511 67.8323 212.772 68.1403 212.955C68.4483 213.131 68.7893 213.219 69.1633 213.219C69.5373 213.219 69.8783 213.131 70.1863 212.955C70.5017 212.772 70.751 212.511 70.9343 212.174C71.1177 211.829 71.2093 211.43 71.2093 210.975ZM79.4129 210.755C79.4129 210.946 79.4019 211.147 79.3799 211.36H74.5619C74.5986 211.954 74.8003 212.42 75.1669 212.757C75.5409 213.087 75.9919 213.252 76.5199 213.252C76.9526 213.252 77.3119 213.153 77.5979 212.955C77.8913 212.75 78.0966 212.478 78.2139 212.141H79.2919C79.1306 212.72 78.8079 213.193 78.3239 213.56C77.8399 213.919 77.2386 214.099 76.5199 214.099C75.9479 214.099 75.4346 213.971 74.9799 213.714C74.5326 213.457 74.1806 213.094 73.9239 212.625C73.6673 212.148 73.5389 211.598 73.5389 210.975C73.5389 210.352 73.6636 209.805 73.9129 209.336C74.1623 208.867 74.5106 208.507 74.9579 208.258C75.4126 208.001 75.9333 207.873 76.5199 207.873C77.0919 207.873 77.5979 207.998 78.0379 208.247C78.4779 208.496 78.8153 208.841 79.0499 209.281C79.2919 209.714 79.4129 210.205 79.4129 210.755ZM78.3789 210.546C78.3789 210.165 78.2946 209.838 78.1259 209.567C77.9573 209.288 77.7263 209.079 77.4329 208.94C77.1469 208.793 76.8279 208.72 76.4759 208.72C75.9699 208.72 75.5373 208.881 75.1779 209.204C74.8259 209.527 74.6243 209.974 74.5729 210.546H78.3789ZM81.7352 208.951C81.9112 208.606 82.1605 208.339 82.4832 208.148C82.8132 207.957 83.2129 207.862 83.6822 207.862V208.896H83.4182C82.2962 208.896 81.7352 209.505 81.7352 210.722V214H80.7342V207.972H81.7352V208.951ZM90.7073 207.862C91.4407 207.862 92.0347 208.086 92.4893 208.533C92.944 208.973 93.1713 209.611 93.1713 210.447V214H92.1813V210.59C92.1813 209.989 92.031 209.53 91.7303 209.215C91.4297 208.892 91.019 208.731 90.4983 208.731C89.9703 208.731 89.5487 208.896 89.2333 209.226C88.9253 209.556 88.7713 210.036 88.7713 210.667V214H87.7703V207.972H88.7713V208.83C88.9693 208.522 89.237 208.284 89.5743 208.115C89.919 207.946 90.2967 207.862 90.7073 207.862ZM94.4325 210.964C94.4325 210.348 94.5571 209.809 94.8065 209.347C95.0558 208.878 95.3968 208.515 95.8295 208.258C96.2695 208.001 96.7571 207.873 97.2925 207.873C97.8205 207.873 98.2788 207.987 98.6675 208.214C99.0561 208.441 99.3458 208.727 99.5365 209.072V207.972H100.548V214H99.5365V212.878C99.3385 213.23 99.0415 213.523 98.6455 213.758C98.2568 213.985 97.8021 214.099 97.2815 214.099C96.7461 214.099 96.2621 213.967 95.8295 213.703C95.3968 213.439 95.0558 213.069 94.8065 212.592C94.5571 212.115 94.4325 211.573 94.4325 210.964ZM99.5365 210.975C99.5365 210.52 99.4448 210.124 99.2615 209.787C99.0781 209.45 98.8288 209.193 98.5135 209.017C98.2055 208.834 97.8645 208.742 97.4905 208.742C97.1165 208.742 96.7755 208.83 96.4675 209.006C96.1595 209.182 95.9138 209.439 95.7305 209.776C95.5471 210.113 95.4555 210.509 95.4555 210.964C95.4555 211.426 95.5471 211.829 95.7305 212.174C95.9138 212.511 96.1595 212.772 96.4675 212.955C96.7755 213.131 97.1165 213.219 97.4905 213.219C97.8645 213.219 98.2055 213.131 98.5135 212.955C98.8288 212.772 99.0781 212.511 99.2615 212.174C99.4448 211.829 99.5365 211.43 99.5365 210.975ZM109.489 207.862C109.958 207.862 110.376 207.961 110.743 208.159C111.11 208.35 111.399 208.639 111.612 209.028C111.825 209.417 111.931 209.89 111.931 210.447V214H110.941V210.59C110.941 209.989 110.791 209.53 110.49 209.215C110.197 208.892 109.797 208.731 109.291 208.731C108.77 208.731 108.356 208.9 108.048 209.237C107.74 209.567 107.586 210.047 107.586 210.678V214H106.596V210.59C106.596 209.989 106.446 209.53 106.145 209.215C105.852 208.892 105.452 208.731 104.946 208.731C104.425 208.731 104.011 208.9 103.703 209.237C103.395 209.567 103.241 210.047 103.241 210.678V214H102.24V207.972H103.241V208.841C103.439 208.526 103.703 208.284 104.033 208.115C104.37 207.946 104.741 207.862 105.144 207.862C105.65 207.862 106.097 207.976 106.486 208.203C106.875 208.43 107.164 208.764 107.355 209.204C107.524 208.779 107.802 208.449 108.191 208.214C108.58 207.979 109.012 207.862 109.489 207.862ZM119.073 210.755C119.073 210.946 119.062 211.147 119.04 211.36H114.222C114.259 211.954 114.46 212.42 114.827 212.757C115.201 213.087 115.652 213.252 116.18 213.252C116.613 213.252 116.972 213.153 117.258 212.955C117.551 212.75 117.757 212.478 117.874 212.141H118.952C118.791 212.72 118.468 213.193 117.984 213.56C117.5 213.919 116.899 214.099 116.18 214.099C115.608 214.099 115.095 213.971 114.64 213.714C114.193 213.457 113.841 213.094 113.584 212.625C113.327 212.148 113.199 211.598 113.199 210.975C113.199 210.352 113.324 209.805 113.573 209.336C113.822 208.867 114.171 208.507 114.618 208.258C115.073 208.001 115.593 207.873 116.18 207.873C116.752 207.873 117.258 207.998 117.698 208.247C118.138 208.496 118.475 208.841 118.71 209.281C118.952 209.714 119.073 210.205 119.073 210.755ZM118.039 210.546C118.039 210.165 117.955 209.838 117.786 209.567C117.617 209.288 117.386 209.079 117.093 208.94C116.807 208.793 116.488 208.72 116.136 208.72C115.63 208.72 115.197 208.881 114.838 209.204C114.486 209.527 114.284 209.974 114.233 210.546H118.039Z" fill="white"/>
<path d="M25.4991 224.322V232H23.9591V228.733H20.6701V232H19.1301V224.322H20.6701V227.479H23.9591V224.322H25.4991ZM26.6189 228.931C26.6189 228.315 26.7399 227.769 26.9819 227.292C27.2312 226.815 27.5649 226.449 27.9829 226.192C28.4082 225.935 28.8812 225.807 29.4019 225.807C29.8565 225.807 30.2525 225.899 30.5899 226.082C30.9345 226.265 31.2095 226.496 31.4149 226.775V225.906H32.9659V232H31.4149V231.109C31.2169 231.395 30.9419 231.633 30.5899 231.824C30.2452 232.007 29.8455 232.099 29.3909 232.099C28.8775 232.099 28.4082 231.967 27.9829 231.703C27.5649 231.439 27.2312 231.069 26.9819 230.592C26.7399 230.108 26.6189 229.554 26.6189 228.931ZM31.4149 228.953C31.4149 228.579 31.3415 228.26 31.1949 227.996C31.0482 227.725 30.8502 227.519 30.6009 227.38C30.3515 227.233 30.0839 227.16 29.7979 227.16C29.5119 227.16 29.2479 227.23 29.0059 227.369C28.7639 227.508 28.5659 227.714 28.4119 227.985C28.2652 228.249 28.1919 228.564 28.1919 228.931C28.1919 229.298 28.2652 229.62 28.4119 229.899C28.5659 230.17 28.7639 230.379 29.0059 230.526C29.2552 230.673 29.5192 230.746 29.7979 230.746C30.0839 230.746 30.3515 230.676 30.6009 230.537C30.8502 230.39 31.0482 230.185 31.1949 229.921C31.3415 229.65 31.4149 229.327 31.4149 228.953ZM37.2639 227.171H36.1969V232H34.6349V227.171H33.9419V225.906H34.6349V225.598C34.6349 224.85 34.8476 224.3 35.2729 223.948C35.6983 223.596 36.3399 223.431 37.1979 223.453V224.751C36.8239 224.744 36.5636 224.806 36.4169 224.938C36.2703 225.07 36.1969 225.308 36.1969 225.653V225.906H37.2639V227.171ZM40.5939 232.099C40.0953 232.099 39.6479 232.011 39.2519 231.835C38.8559 231.652 38.5406 231.406 38.3059 231.098C38.0786 230.79 37.9539 230.449 37.9319 230.075H39.4829C39.5123 230.31 39.6259 230.504 39.8239 230.658C40.0293 230.812 40.2823 230.889 40.5829 230.889C40.8763 230.889 41.1036 230.83 41.2649 230.713C41.4336 230.596 41.5179 230.445 41.5179 230.262C41.5179 230.064 41.4153 229.917 41.2099 229.822C41.0119 229.719 40.6929 229.609 40.2529 229.492C39.7983 229.382 39.4243 229.268 39.1309 229.151C38.8449 229.034 38.5956 228.854 38.3829 228.612C38.1776 228.37 38.0749 228.044 38.0749 227.633C38.0749 227.296 38.1703 226.988 38.3609 226.709C38.5589 226.43 38.8376 226.21 39.1969 226.049C39.5636 225.888 39.9926 225.807 40.4839 225.807C41.2099 225.807 41.7893 225.99 42.2219 226.357C42.6546 226.716 42.8929 227.204 42.9369 227.82H41.4629C41.4409 227.578 41.3383 227.387 41.1549 227.248C40.9789 227.101 40.7406 227.028 40.4399 227.028C40.1613 227.028 39.9449 227.079 39.7909 227.182C39.6443 227.285 39.5709 227.428 39.5709 227.611C39.5709 227.816 39.6736 227.974 39.8789 228.084C40.0843 228.187 40.4033 228.293 40.8359 228.403C41.2759 228.513 41.6389 228.627 41.9249 228.744C42.2109 228.861 42.4566 229.045 42.6619 229.294C42.8746 229.536 42.9846 229.859 42.9919 230.262C42.9919 230.614 42.8929 230.929 42.6949 231.208C42.5043 231.487 42.2256 231.707 41.8589 231.868C41.4996 232.022 41.0779 232.099 40.5939 232.099ZM43.8601 228.931C43.8601 228.315 43.9811 227.769 44.2231 227.292C44.4724 226.815 44.8061 226.449 45.2241 226.192C45.6494 225.935 46.1224 225.807 46.6431 225.807C47.0977 225.807 47.4937 225.899 47.8311 226.082C48.1757 226.265 48.4507 226.496 48.6561 226.775V225.906H50.2071V232H48.6561V231.109C48.4581 231.395 48.1831 231.633 47.8311 231.824C47.4864 232.007 47.0867 232.099 46.6321 232.099C46.1187 232.099 45.6494 231.967 45.2241 231.703C44.8061 231.439 44.4724 231.069 44.2231 230.592C43.9811 230.108 43.8601 229.554 43.8601 228.931ZM48.6561 228.953C48.6561 228.579 48.5827 228.26 48.4361 227.996C48.2894 227.725 48.0914 227.519 47.8421 227.38C47.5927 227.233 47.3251 227.16 47.0391 227.16C46.7531 227.16 46.4891 227.23 46.2471 227.369C46.0051 227.508 45.8071 227.714 45.6531 227.985C45.5064 228.249 45.4331 228.564 45.4331 228.931C45.4331 229.298 45.5064 229.62 45.6531 229.899C45.8071 230.17 46.0051 230.379 46.2471 230.526C46.4964 230.673 46.7604 230.746 47.0391 230.746C47.3251 230.746 47.5927 230.676 47.8421 230.537C48.0914 230.39 48.2894 230.185 48.4361 229.921C48.5827 229.65 48.6561 229.327 48.6561 228.953ZM53.5041 227.171V230.119C53.5041 230.324 53.5518 230.475 53.6471 230.57C53.7498 230.658 53.9185 230.702 54.1531 230.702H54.8681V232H53.9001C52.6021 232 51.9531 231.369 51.9531 230.108V227.171H51.2271V225.906H51.9531V224.399H53.5041V225.906H54.8681V227.171H53.5041ZM63.3049 230.537H60.2469L59.7409 232H58.1239L60.8849 224.311H62.6779L65.4389 232H63.8109L63.3049 230.537ZM62.8869 229.305L61.7759 226.093L60.6649 229.305H62.8869ZM68.0109 226.852C68.2089 226.529 68.4656 226.276 68.7809 226.093C69.1036 225.91 69.4702 225.818 69.8809 225.818V227.435H69.4739C68.9899 227.435 68.6232 227.549 68.3739 227.776C68.1319 228.003 68.0109 228.399 68.0109 228.964V232H66.4709V225.906H68.0109V226.852ZM70.5222 228.931C70.5222 228.315 70.6432 227.769 70.8852 227.292C71.1345 226.815 71.4718 226.449 71.8972 226.192C72.3225 225.935 72.7955 225.807 73.3162 225.807C73.7122 225.807 74.0898 225.895 74.4492 226.071C74.8085 226.24 75.0945 226.467 75.3072 226.753V223.86H76.8692V232H75.3072V231.098C75.1165 231.399 74.8488 231.641 74.5042 231.824C74.1595 232.007 73.7598 232.099 73.3052 232.099C72.7918 232.099 72.3225 231.967 71.8972 231.703C71.4718 231.439 71.1345 231.069 70.8852 230.592C70.6432 230.108 70.5222 229.554 70.5222 228.931ZM75.3182 228.953C75.3182 228.579 75.2448 228.26 75.0982 227.996C74.9515 227.725 74.7535 227.519 74.5042 227.38C74.2548 227.233 73.9872 227.16 73.7012 227.16C73.4152 227.16 73.1512 227.23 72.9092 227.369C72.6672 227.508 72.4692 227.714 72.3152 227.985C72.1685 228.249 72.0952 228.564 72.0952 228.931C72.0952 229.298 72.1685 229.62 72.3152 229.899C72.4692 230.17 72.6672 230.379 72.9092 230.526C73.1585 230.673 73.4225 230.746 73.7012 230.746C73.9872 230.746 74.2548 230.676 74.5042 230.537C74.7535 230.39 74.9515 230.185 75.0982 229.921C75.2448 229.65 75.3182 229.327 75.3182 228.953ZM81.0793 232.099C80.4926 232.099 79.9646 231.971 79.4953 231.714C79.0259 231.45 78.6556 231.08 78.3843 230.603C78.1203 230.126 77.9883 229.576 77.9883 228.953C77.9883 228.33 78.1239 227.78 78.3953 227.303C78.6739 226.826 79.0516 226.46 79.5283 226.203C80.0049 225.939 80.5366 225.807 81.1233 225.807C81.7099 225.807 82.2416 225.939 82.7183 226.203C83.1949 226.46 83.5689 226.826 83.8403 227.303C84.1189 227.78 84.2583 228.33 84.2583 228.953C84.2583 229.576 84.1153 230.126 83.8293 230.603C83.5506 231.08 83.1693 231.45 82.6853 231.714C82.2086 231.971 81.6733 232.099 81.0793 232.099ZM81.0793 230.757C81.3579 230.757 81.6183 230.691 81.8603 230.559C82.1096 230.42 82.3076 230.214 82.4543 229.943C82.6009 229.672 82.6743 229.342 82.6743 228.953C82.6743 228.374 82.5203 227.93 82.2123 227.622C81.9116 227.307 81.5413 227.149 81.1013 227.149C80.6613 227.149 80.2909 227.307 79.9903 227.622C79.6969 227.93 79.5503 228.374 79.5503 228.953C79.5503 229.532 79.6933 229.98 79.9793 230.295C80.2726 230.603 80.6393 230.757 81.0793 230.757Z" fill="white"/>
<path d="M224.861 207.147V209.71H227.655V210.535H224.861V213.175H227.985V214H223.86V206.322H227.985V207.147H224.861ZM232.646 214L231.216 211.756L229.841 214H228.796L230.743 211.008L228.796 207.972H229.929L231.359 210.205L232.723 207.972H233.768L231.832 210.953L233.779 214H232.646ZM235.765 209.083C235.963 208.738 236.256 208.452 236.645 208.225C237.041 207.99 237.499 207.873 238.02 207.873C238.555 207.873 239.039 208.001 239.472 208.258C239.912 208.515 240.256 208.878 240.506 209.347C240.755 209.809 240.88 210.348 240.88 210.964C240.88 211.573 240.755 212.115 240.506 212.592C240.256 213.069 239.912 213.439 239.472 213.703C239.039 213.967 238.555 214.099 238.02 214.099C237.506 214.099 237.052 213.985 236.656 213.758C236.267 213.523 235.97 213.234 235.765 212.889V216.86H234.764V207.972H235.765V209.083ZM239.857 210.964C239.857 210.509 239.765 210.113 239.582 209.776C239.398 209.439 239.149 209.182 238.834 209.006C238.526 208.83 238.185 208.742 237.811 208.742C237.444 208.742 237.103 208.834 236.788 209.017C236.48 209.193 236.23 209.453 236.04 209.798C235.856 210.135 235.765 210.528 235.765 210.975C235.765 211.43 235.856 211.829 236.04 212.174C236.23 212.511 236.48 212.772 236.788 212.955C237.103 213.131 237.444 213.219 237.811 213.219C238.185 213.219 238.526 213.131 238.834 212.955C239.149 212.772 239.398 212.511 239.582 212.174C239.765 211.829 239.857 211.426 239.857 210.964ZM242.714 206.993C242.523 206.993 242.362 206.927 242.23 206.795C242.098 206.663 242.032 206.502 242.032 206.311C242.032 206.12 242.098 205.959 242.23 205.827C242.362 205.695 242.523 205.629 242.714 205.629C242.897 205.629 243.051 205.695 243.176 205.827C243.308 205.959 243.374 206.12 243.374 206.311C243.374 206.502 243.308 206.663 243.176 206.795C243.051 206.927 242.897 206.993 242.714 206.993ZM243.198 207.972V214H242.197V207.972H243.198ZM245.905 208.951C246.081 208.606 246.33 208.339 246.653 208.148C246.983 207.957 247.383 207.862 247.852 207.862V208.896H247.588C246.466 208.896 245.905 209.505 245.905 210.722V214H244.904V207.972H245.905V208.951ZM254.2 207.972L250.57 216.838H249.536L250.724 213.934L248.293 207.972H249.404L251.296 212.856L253.166 207.972H254.2ZM257.765 210.964C257.765 210.348 257.889 209.809 258.139 209.347C258.388 208.878 258.729 208.515 259.162 208.258C259.602 208.001 260.093 207.873 260.636 207.873C261.105 207.873 261.541 207.983 261.945 208.203C262.348 208.416 262.656 208.698 262.869 209.05V205.86H263.881V214H262.869V212.867C262.671 213.226 262.377 213.523 261.989 213.758C261.6 213.985 261.145 214.099 260.625 214.099C260.089 214.099 259.602 213.967 259.162 213.703C258.729 213.439 258.388 213.069 258.139 212.592C257.889 212.115 257.765 211.573 257.765 210.964ZM262.869 210.975C262.869 210.52 262.777 210.124 262.594 209.787C262.41 209.45 262.161 209.193 261.846 209.017C261.538 208.834 261.197 208.742 260.823 208.742C260.449 208.742 260.108 208.83 259.8 209.006C259.492 209.182 259.246 209.439 259.063 209.776C258.879 210.113 258.788 210.509 258.788 210.964C258.788 211.426 258.879 211.829 259.063 212.174C259.246 212.511 259.492 212.772 259.8 212.955C260.108 213.131 260.449 213.219 260.823 213.219C261.197 213.219 261.538 213.131 261.846 212.955C262.161 212.772 262.41 212.511 262.594 212.174C262.777 211.829 262.869 211.43 262.869 210.975ZM265.198 210.964C265.198 210.348 265.323 209.809 265.572 209.347C265.821 208.878 266.162 208.515 266.595 208.258C267.035 208.001 267.523 207.873 268.058 207.873C268.586 207.873 269.044 207.987 269.433 208.214C269.822 208.441 270.111 208.727 270.302 209.072V207.972H271.314V214H270.302V212.878C270.104 213.23 269.807 213.523 269.411 213.758C269.022 213.985 268.568 214.099 268.047 214.099C267.512 214.099 267.028 213.967 266.595 213.703C266.162 213.439 265.821 213.069 265.572 212.592C265.323 212.115 265.198 211.573 265.198 210.964ZM270.302 210.975C270.302 210.52 270.21 210.124 270.027 209.787C269.844 209.45 269.594 209.193 269.279 209.017C268.971 208.834 268.63 208.742 268.256 208.742C267.882 208.742 267.541 208.83 267.233 209.006C266.925 209.182 266.679 209.439 266.496 209.776C266.313 210.113 266.221 210.509 266.221 210.964C266.221 211.426 266.313 211.829 266.496 212.174C266.679 212.511 266.925 212.772 267.233 212.955C267.541 213.131 267.882 213.219 268.256 213.219C268.63 213.219 268.971 213.131 269.279 212.955C269.594 212.772 269.844 212.511 270.027 212.174C270.21 211.829 270.302 211.43 270.302 210.975ZM274.227 208.797V212.35C274.227 212.643 274.289 212.852 274.414 212.977C274.538 213.094 274.755 213.153 275.063 213.153H275.8V214H274.898C274.34 214 273.922 213.872 273.644 213.615C273.365 213.358 273.226 212.937 273.226 212.35V208.797H272.445V207.972H273.226V206.454H274.227V207.972H275.8V208.797H274.227ZM282.513 210.755C282.513 210.946 282.502 211.147 282.48 211.36H277.662C277.698 211.954 277.9 212.42 278.267 212.757C278.641 213.087 279.092 213.252 279.62 213.252C280.052 213.252 280.412 213.153 280.698 212.955C280.991 212.75 281.196 212.478 281.314 212.141H282.392C282.23 212.72 281.908 213.193 281.424 213.56C280.94 213.919 280.338 214.099 279.62 214.099C279.048 214.099 278.534 213.971 278.08 213.714C277.632 213.457 277.28 213.094 277.024 212.625C276.767 212.148 276.639 211.598 276.639 210.975C276.639 210.352 276.763 209.805 277.013 209.336C277.262 208.867 277.61 208.507 278.058 208.258C278.512 208.001 279.033 207.873 279.62 207.873C280.192 207.873 280.698 207.998 281.138 208.247C281.578 208.496 281.915 208.841 282.15 209.281C282.392 209.714 282.513 210.205 282.513 210.755ZM281.479 210.546C281.479 210.165 281.394 209.838 281.226 209.567C281.057 209.288 280.826 209.079 280.533 208.94C280.247 208.793 279.928 208.72 279.576 208.72C279.07 208.72 278.637 208.881 278.278 209.204C277.926 209.527 277.724 209.974 277.673 210.546H281.479Z" fill="white"/>
<path d="M222.686 227.886C222.686 226.617 222.913 225.624 223.368 224.905C223.83 224.186 224.592 223.827 225.656 223.827C226.719 223.827 227.478 224.186 227.933 224.905C228.395 225.624 228.626 226.617 228.626 227.886C228.626 229.162 228.395 230.163 227.933 230.889C227.478 231.615 226.719 231.978 225.656 231.978C224.592 231.978 223.83 231.615 223.368 230.889C222.913 230.163 222.686 229.162 222.686 227.886ZM227.108 227.886C227.108 227.343 227.071 226.889 226.998 226.522C226.932 226.148 226.792 225.844 226.58 225.609C226.374 225.374 226.066 225.257 225.656 225.257C225.245 225.257 224.933 225.374 224.721 225.609C224.515 225.844 224.376 226.148 224.303 226.522C224.237 226.889 224.204 227.343 224.204 227.886C224.204 228.443 224.237 228.913 224.303 229.294C224.369 229.668 224.508 229.972 224.721 230.207C224.933 230.434 225.245 230.548 225.656 230.548C226.066 230.548 226.378 230.434 226.591 230.207C226.803 229.972 226.943 229.668 227.009 229.294C227.075 228.913 227.108 228.443 227.108 227.886ZM229.797 227.886C229.797 226.617 230.024 225.624 230.479 224.905C230.941 224.186 231.704 223.827 232.767 223.827C233.83 223.827 234.589 224.186 235.044 224.905C235.506 225.624 235.737 226.617 235.737 227.886C235.737 229.162 235.506 230.163 235.044 230.889C234.589 231.615 233.83 231.978 232.767 231.978C231.704 231.978 230.941 231.615 230.479 230.889C230.024 230.163 229.797 229.162 229.797 227.886ZM234.219 227.886C234.219 227.343 234.182 226.889 234.109 226.522C234.043 226.148 233.904 225.844 233.691 225.609C233.486 225.374 233.178 225.257 232.767 225.257C232.356 225.257 232.045 225.374 231.832 225.609C231.627 225.844 231.487 226.148 231.414 226.522C231.348 226.889 231.315 227.343 231.315 227.886C231.315 228.443 231.348 228.913 231.414 229.294C231.48 229.668 231.619 229.972 231.832 230.207C232.045 230.434 232.356 230.548 232.767 230.548C233.178 230.548 233.489 230.434 233.702 230.207C233.915 229.972 234.054 229.668 234.12 229.294C234.186 228.913 234.219 228.443 234.219 227.886ZM241.209 221.583L238.239 233.991H236.732L239.702 221.583H241.209ZM242.258 227.886C242.258 226.617 242.485 225.624 242.94 224.905C243.402 224.186 244.164 223.827 245.228 223.827C246.291 223.827 247.05 224.186 247.505 224.905C247.967 225.624 248.198 226.617 248.198 227.886C248.198 229.162 247.967 230.163 247.505 230.889C247.05 231.615 246.291 231.978 245.228 231.978C244.164 231.978 243.402 231.615 242.94 230.889C242.485 230.163 242.258 229.162 242.258 227.886ZM246.68 227.886C246.68 227.343 246.643 226.889 246.57 226.522C246.504 226.148 246.364 225.844 246.152 225.609C245.946 225.374 245.638 225.257 245.228 225.257C244.817 225.257 244.505 225.374 244.293 225.609C244.087 225.844 243.948 226.148 243.875 226.522C243.809 226.889 243.776 227.343 243.776 227.886C243.776 228.443 243.809 228.913 243.875 229.294C243.941 229.668 244.08 229.972 244.293 230.207C244.505 230.434 244.817 230.548 245.228 230.548C245.638 230.548 245.95 230.434 246.163 230.207C246.375 229.972 246.515 229.668 246.581 229.294C246.647 228.913 246.68 228.443 246.68 227.886ZM249.369 227.886C249.369 226.617 249.596 225.624 250.051 224.905C250.513 224.186 251.276 223.827 252.339 223.827C253.402 223.827 254.161 224.186 254.616 224.905C255.078 225.624 255.309 226.617 255.309 227.886C255.309 229.162 255.078 230.163 254.616 230.889C254.161 231.615 253.402 231.978 252.339 231.978C251.276 231.978 250.513 231.615 250.051 230.889C249.596 230.163 249.369 229.162 249.369 227.886ZM253.791 227.886C253.791 227.343 253.754 226.889 253.681 226.522C253.615 226.148 253.476 225.844 253.263 225.609C253.058 225.374 252.75 225.257 252.339 225.257C251.928 225.257 251.617 225.374 251.404 225.609C251.199 225.844 251.059 226.148 250.986 226.522C250.92 226.889 250.887 227.343 250.887 227.886C250.887 228.443 250.92 228.913 250.986 229.294C251.052 229.668 251.191 229.972 251.404 230.207C251.617 230.434 251.928 230.548 252.339 230.548C252.75 230.548 253.061 230.434 253.274 230.207C253.487 229.972 253.626 229.668 253.692 229.294C253.758 228.913 253.791 228.443 253.791 227.886Z" fill="white"/>
<rect x="479.4" y="202.4" width="41.2" height="30.2" rx="6.6" fill="white" fill-opacity="0.23"/>
<rect x="479.4" y="202.4" width="41.2" height="30.2" rx="6.6" stroke="white" stroke-width="0.8"/>
<path d="M508.5 203V215.5V232.5" stroke="white" stroke-width="0.8"/>
<path d="M480 213.5H491.5V219M491.5 232V225M480 219H485.5H491.5M491.5 219V225M480 225H485.5H491.5M508.5 208.5H521" stroke="white" stroke-width="0.7"/>
<path d="M508.5 214H521" stroke="white" stroke-width="0.7"/>
<path d="M508.5 219.5H516.5H521" stroke="white" stroke-width="0.7"/>
<path d="M508.5 225H521" stroke="white" stroke-width="0.7"/>
<circle cx="438.5" cy="5.5" r="84.5" fill="white" fill-opacity="0.25"/>
</g>
<defs>
<clipPath id="clip0_106_3455">
<rect width="540" height="268" rx="10" fill="white"/>
</clipPath>
</defs>
</svg>
