<svg width="276" height="65" viewBox="0 0 276 65" fill="none" xmlns="http://www.w3.org/2000/svg">
<path d="M43.1818 17.0909C43.1818 14.8465 42.7397 12.6241 41.8809 10.5505C41.022 8.47694 39.763 6.59285 38.176 5.00581C36.589 3.41877 34.7049 2.15987 32.6313 1.30097C30.5578 0.442069 28.3353 -9.81063e-08 26.0909 0C23.8465 9.81063e-08 21.6241 0.44207 19.5505 1.30097C17.4769 2.15987 15.5928 3.41877 14.0058 5.00581C12.4188 6.59285 11.1599 8.47694 10.301 10.5505C9.44207 12.6241 9 14.8465 9 17.0909H14.8428C14.8428 15.6138 15.1337 14.1511 15.699 12.7864C16.2643 11.4217 17.0928 10.1818 18.1373 9.13728C19.1818 8.09279 20.4217 7.26426 21.7864 6.69899C23.1511 6.13371 24.6138 5.84277 26.0909 5.84277C27.568 5.84277 29.0307 6.13371 30.3954 6.69899C31.7601 7.26426 33.0001 8.09279 34.0445 9.13728C35.089 10.1818 35.9176 11.4217 36.4828 12.7864C37.0481 14.1511 37.339 15.6138 37.339 17.0909H43.1818Z" fill="#343434"/>
<path d="M43.5455 17.4546L51.9091 64H1L1.94737 58.4881L9 17.4546H15.1818H29H36.2727H43.5455Z" fill="#FFA2A1"/>
<path d="M1.94737 58.4881L1 64H51.9091L43.5455 17.4546H36.2727M1.94737 58.4881L9 17.4546H15.1818M1.94737 58.4881H9M36.2727 17.4546H29H15.1818M36.2727 17.4546L43.5455 58.4881H9M15.1818 17.4546L9 58.4881" stroke="#FF5454" stroke-opacity="0.56"/>
<path d="M74.1581 23.4297H78.8612L87.7006 47.0083L96.5189 23.4297H101.222L89.5482 54H85.8109L74.1581 23.4297ZM72.0165 23.4297H76.4886L77.2655 43.8379V54H72.0165V23.4297ZM98.8915 23.4297H103.385V54H98.1146V43.8379L98.8915 23.4297ZM121.537 49.4438V38.6099C121.537 37.798 121.39 37.0981 121.096 36.5103C120.802 35.9224 120.354 35.4674 119.753 35.1455C119.165 34.8236 118.423 34.6626 117.527 34.6626C116.701 34.6626 115.987 34.8026 115.385 35.0825C114.783 35.3625 114.315 35.7404 113.979 36.2163C113.643 36.6922 113.475 37.2311 113.475 37.833H108.436C108.436 36.9372 108.653 36.0693 109.087 35.2295C109.52 34.3896 110.15 33.6408 110.976 32.9829C111.802 32.325 112.789 31.8071 113.937 31.4292C115.084 31.0513 116.372 30.8623 117.8 30.8623C119.508 30.8623 121.019 31.1493 122.335 31.7231C123.665 32.297 124.708 33.1649 125.463 34.3267C126.233 35.4744 126.618 36.9162 126.618 38.6519V48.751C126.618 49.7868 126.688 50.7176 126.828 51.5435C126.982 52.3553 127.199 53.0622 127.479 53.6641V54H122.293C122.055 53.4541 121.866 52.7612 121.726 51.9214C121.6 51.0675 121.537 50.2417 121.537 49.4438ZM122.272 40.1846L122.314 43.313H118.682C117.744 43.313 116.918 43.404 116.204 43.5859C115.49 43.7539 114.895 44.0059 114.42 44.3418C113.944 44.6777 113.587 45.0837 113.349 45.5596C113.111 46.0355 112.992 46.5744 112.992 47.1763C112.992 47.7782 113.132 48.3311 113.412 48.835C113.692 49.3249 114.098 49.7098 114.629 49.9897C115.175 50.2697 115.833 50.4097 116.603 50.4097C117.639 50.4097 118.542 50.1997 119.312 49.7798C120.095 49.3459 120.711 48.821 121.159 48.2051C121.607 47.5752 121.845 46.9803 121.873 46.4204L123.511 48.667C123.343 49.2409 123.056 49.8568 122.65 50.5146C122.244 51.1725 121.712 51.8024 121.054 52.4043C120.41 52.9922 119.634 53.4751 118.724 53.853C117.828 54.231 116.792 54.4199 115.616 54.4199C114.133 54.4199 112.81 54.126 111.648 53.5381C110.486 52.9362 109.576 52.1313 108.919 51.1235C108.261 50.1017 107.932 48.9469 107.932 47.6592C107.932 46.4554 108.156 45.3916 108.604 44.4678C109.066 43.5299 109.737 42.7461 110.619 42.1162C111.515 41.4863 112.607 41.0104 113.895 40.6885C115.182 40.3525 116.652 40.1846 118.304 40.1846H122.272ZM136.918 21.75V54H131.837V21.75H136.918ZM147.47 21.75V54H142.389V21.75H147.47Z" fill="#FF5454" fill-opacity="0.95"/>
<path d="M162.473 31.2822V34.2637H150.191V31.2822H162.473ZM154.348 25.7603H158.232V48.373C158.232 49.1429 158.351 49.7238 158.589 50.1157C158.827 50.5076 159.135 50.7666 159.513 50.8926C159.891 51.0186 160.297 51.0815 160.731 51.0815C161.053 51.0815 161.389 51.0535 161.738 50.9976C162.102 50.9276 162.375 50.8716 162.557 50.8296L162.578 54C162.27 54.098 161.864 54.189 161.361 54.2729C160.871 54.3709 160.276 54.4199 159.576 54.4199C158.624 54.4199 157.749 54.231 156.951 53.853C156.154 53.4751 155.517 52.8452 155.041 51.9634C154.579 51.0675 154.348 49.8638 154.348 48.3521V25.7603ZM170.842 31.2822V54H166.936V31.2822H170.842ZM166.642 25.2563C166.642 24.6265 166.831 24.0946 167.209 23.6606C167.601 23.2267 168.175 23.0098 168.931 23.0098C169.673 23.0098 170.24 23.2267 170.632 23.6606C171.038 24.0946 171.241 24.6265 171.241 25.2563C171.241 25.8582 171.038 26.3761 170.632 26.8101C170.24 27.23 169.673 27.4399 168.931 27.4399C168.175 27.4399 167.601 27.23 167.209 26.8101C166.831 26.3761 166.642 25.8582 166.642 25.2563ZM183.577 50.4937L189.792 31.2822H193.76L185.593 54H182.989L183.577 50.4937ZM178.391 31.2822L184.795 50.5986L185.236 54H182.632L174.402 31.2822H178.391ZM206.223 54.4199C204.641 54.4199 203.207 54.154 201.919 53.6221C200.645 53.0762 199.546 52.3133 198.622 51.3335C197.713 50.3537 197.013 49.1919 196.523 47.8481C196.033 46.5044 195.788 45.0347 195.788 43.439V42.5571C195.788 40.7095 196.061 39.0648 196.607 37.623C197.153 36.1673 197.895 34.9355 198.832 33.9277C199.77 32.9199 200.834 32.1571 202.024 31.6392C203.214 31.1213 204.445 30.8623 205.719 30.8623C207.343 30.8623 208.743 31.1423 209.918 31.7021C211.108 32.262 212.081 33.0459 212.837 34.0537C213.593 35.0475 214.153 36.2233 214.516 37.5811C214.88 38.9248 215.062 40.3945 215.062 41.9902V43.7329H198.097V40.5625H211.178V40.2686C211.122 39.2607 210.912 38.2809 210.548 37.3291C210.198 36.3773 209.638 35.5934 208.868 34.9775C208.099 34.3617 207.049 34.0537 205.719 34.0537C204.837 34.0537 204.025 34.2427 203.284 34.6206C202.542 34.9845 201.905 35.5304 201.373 36.2583C200.841 36.9862 200.428 37.875 200.134 38.9248C199.84 39.9746 199.693 41.1854 199.693 42.5571V43.439C199.693 44.5168 199.84 45.5316 200.134 46.4834C200.442 47.4212 200.883 48.2471 201.457 48.9609C202.045 49.6748 202.752 50.2347 203.577 50.6406C204.417 51.0465 205.369 51.2495 206.433 51.2495C207.805 51.2495 208.966 50.9696 209.918 50.4097C210.87 49.8498 211.703 49.1009 212.417 48.1631L214.768 50.0317C214.278 50.7736 213.656 51.4805 212.9 52.1523C212.144 52.8242 211.213 53.3701 210.107 53.79C209.015 54.21 207.721 54.4199 206.223 54.4199ZM223.074 34.8516V54H219.189V31.2822H222.969L223.074 34.8516ZM230.17 31.1562L230.149 34.7676C229.828 34.6976 229.52 34.6556 229.226 34.6416C228.946 34.6136 228.624 34.5996 228.26 34.5996C227.364 34.5996 226.573 34.7396 225.887 35.0195C225.201 35.2995 224.62 35.6914 224.145 36.1953C223.669 36.6992 223.291 37.3011 223.011 38.001C222.745 38.6868 222.57 39.4427 222.486 40.2686L221.394 40.8984C221.394 39.5267 221.527 38.2389 221.793 37.0352C222.073 35.8314 222.5 34.7676 223.074 33.8438C223.648 32.9059 224.376 32.1781 225.257 31.6602C226.153 31.1283 227.217 30.8623 228.449 30.8623C228.729 30.8623 229.051 30.8973 229.415 30.9673C229.779 31.0233 230.03 31.0863 230.17 31.1562ZM246.58 47.9741C246.58 47.4142 246.454 46.8963 246.202 46.4204C245.964 45.9305 245.468 45.4896 244.712 45.0977C243.97 44.6917 242.85 44.3418 241.352 44.0479C240.093 43.7819 238.952 43.467 237.93 43.103C236.922 42.7391 236.061 42.2982 235.347 41.7803C234.648 41.2624 234.109 40.6535 233.731 39.9536C233.353 39.2537 233.164 38.4349 233.164 37.4971C233.164 36.6012 233.36 35.7544 233.752 34.9565C234.158 34.1587 234.725 33.4518 235.452 32.8359C236.194 32.2201 237.083 31.7371 238.119 31.3872C239.155 31.0373 240.309 30.8623 241.583 30.8623C243.403 30.8623 244.957 31.1842 246.244 31.8281C247.532 32.472 248.519 33.3328 249.205 34.4106C249.891 35.4744 250.234 36.6572 250.234 37.959H246.349C246.349 37.3291 246.16 36.7202 245.782 36.1323C245.419 35.5304 244.88 35.0335 244.166 34.6416C243.466 34.2497 242.605 34.0537 241.583 34.0537C240.505 34.0537 239.631 34.2217 238.959 34.5576C238.301 34.8796 237.818 35.2925 237.51 35.7964C237.216 36.3003 237.069 36.8322 237.069 37.3921C237.069 37.812 237.139 38.1899 237.279 38.5259C237.433 38.8478 237.699 39.1488 238.077 39.4287C238.455 39.6947 238.987 39.9466 239.673 40.1846C240.358 40.4225 241.233 40.6605 242.297 40.8984C244.159 41.3184 245.691 41.8223 246.895 42.4102C248.099 42.998 248.995 43.7189 249.583 44.5728C250.171 45.4266 250.465 46.4624 250.465 47.6802C250.465 48.674 250.255 49.5838 249.835 50.4097C249.429 51.2355 248.834 51.9494 248.05 52.5513C247.28 53.1392 246.356 53.6011 245.279 53.937C244.215 54.259 243.018 54.4199 241.688 54.4199C239.687 54.4199 237.993 54.063 236.607 53.3491C235.221 52.6353 234.172 51.7114 233.458 50.5776C232.744 49.4438 232.387 48.2471 232.387 46.9873H236.292C236.348 48.0511 236.656 48.8979 237.216 49.5278C237.776 50.1437 238.462 50.5846 239.274 50.8506C240.086 51.1025 240.89 51.2285 241.688 51.2285C242.752 51.2285 243.641 51.0885 244.355 50.8086C245.083 50.5286 245.635 50.1437 246.013 49.6538C246.391 49.1639 246.58 48.604 246.58 47.9741ZM264.586 54.4199C263.004 54.4199 261.569 54.154 260.282 53.6221C259.008 53.0762 257.909 52.3133 256.985 51.3335C256.075 50.3537 255.376 49.1919 254.886 47.8481C254.396 46.5044 254.151 45.0347 254.151 43.439V42.5571C254.151 40.7095 254.424 39.0648 254.97 37.623C255.516 36.1673 256.257 34.9355 257.195 33.9277C258.133 32.9199 259.197 32.1571 260.387 31.6392C261.576 31.1213 262.808 30.8623 264.082 30.8623C265.706 30.8623 267.105 31.1423 268.281 31.7021C269.471 32.262 270.444 33.0459 271.2 34.0537C271.956 35.0475 272.515 36.2233 272.879 37.5811C273.243 38.9248 273.425 40.3945 273.425 41.9902V43.7329H256.46V40.5625H269.541V40.2686C269.485 39.2607 269.275 38.2809 268.911 37.3291C268.561 36.3773 268.001 35.5934 267.231 34.9775C266.462 34.3617 265.412 34.0537 264.082 34.0537C263.2 34.0537 262.388 34.2427 261.646 34.6206C260.905 34.9845 260.268 35.5304 259.736 36.2583C259.204 36.9862 258.791 37.875 258.497 38.9248C258.203 39.9746 258.056 41.1854 258.056 42.5571V43.439C258.056 44.5168 258.203 45.5316 258.497 46.4834C258.805 47.4212 259.246 48.2471 259.82 48.9609C260.408 49.6748 261.115 50.2347 261.94 50.6406C262.78 51.0465 263.732 51.2495 264.796 51.2495C266.168 51.2495 267.329 50.9696 268.281 50.4097C269.233 49.8498 270.066 49.1009 270.78 48.1631L273.131 50.0317C272.641 50.7736 272.019 51.4805 271.263 52.1523C270.507 52.8242 269.576 53.3701 268.47 53.79C267.378 54.21 266.084 54.4199 264.586 54.4199Z" fill="#2A2A2A"/>
</svg>
