<svg width="375" height="375" viewBox="0 0 375 375" fill="none" xmlns="http://www.w3.org/2000/svg">
<rect width="375" height="375" fill="#FAFAFA"/>
<path d="M91.1818 162.091C91.1818 159.846 90.7397 157.624 89.8809 155.551C89.022 153.477 87.763 151.593 86.176 150.006C84.589 148.419 82.7049 147.16 80.6313 146.301C78.5578 145.442 76.3353 145 74.0909 145C71.8465 145 69.6241 145.442 67.5505 146.301C65.4769 147.16 63.5928 148.419 62.0058 150.006C60.4188 151.593 59.1599 153.477 58.301 155.551C57.4421 157.624 57 159.847 57 162.091H62.8428C62.8428 160.614 63.1337 159.151 63.699 157.786C64.2643 156.422 65.0928 155.182 66.1373 154.137C67.1818 153.093 68.4217 152.264 69.7864 151.699C71.1511 151.134 72.6138 150.843 74.0909 150.843C75.568 150.843 77.0307 151.134 78.3954 151.699C79.7601 152.264 81.0001 153.093 82.0445 154.137C83.089 155.182 83.9176 156.422 84.4828 157.786C85.0481 159.151 85.339 160.614 85.339 162.091H91.1818Z" fill="#343434"/>
<path d="M91.5455 163.455L99.9091 210H49L49.9474 204.488L57 163.455H63.1818H77H84.2727H91.5455Z" fill="#FF5454" fill-opacity="0.82"/>
<path d="M49.9474 204.488L49 210H99.9091L91.5455 163.455H84.2727M49.9474 204.488L57 163.455H63.1818M49.9474 204.488H57M84.2727 163.455H77H63.1818M84.2727 163.455L91.5455 204.488H57M63.1818 163.455L57 204.488" stroke="#FFA2A1"/>
<path d="M122.158 169.43H126.861L135.701 193.008L144.519 169.43H149.222L137.548 200H133.811L122.158 169.43ZM120.017 169.43H124.489L125.266 189.838V200H120.017V169.43ZM146.892 169.43H151.385V200H146.115V189.838L146.892 169.43ZM169.537 195.444V184.61C169.537 183.798 169.39 183.098 169.096 182.51C168.802 181.922 168.355 181.467 167.753 181.146C167.165 180.824 166.423 180.663 165.527 180.663C164.701 180.663 163.987 180.803 163.385 181.083C162.784 181.362 162.315 181.74 161.979 182.216C161.643 182.692 161.475 183.231 161.475 183.833H156.436C156.436 182.937 156.653 182.069 157.087 181.229C157.521 180.39 158.15 179.641 158.976 178.983C159.802 178.325 160.789 177.807 161.937 177.429C163.085 177.051 164.372 176.862 165.8 176.862C167.508 176.862 169.019 177.149 170.335 177.723C171.665 178.297 172.708 179.165 173.464 180.327C174.233 181.474 174.618 182.916 174.618 184.652V194.751C174.618 195.787 174.688 196.718 174.828 197.543C174.982 198.355 175.199 199.062 175.479 199.664V200H170.293C170.055 199.454 169.866 198.761 169.726 197.921C169.6 197.068 169.537 196.242 169.537 195.444ZM170.272 186.185L170.314 189.313H166.682C165.744 189.313 164.918 189.404 164.204 189.586C163.49 189.754 162.896 190.006 162.42 190.342C161.944 190.678 161.587 191.084 161.349 191.56C161.111 192.035 160.992 192.574 160.992 193.176C160.992 193.778 161.132 194.331 161.412 194.835C161.692 195.325 162.098 195.71 162.63 195.99C163.175 196.27 163.833 196.41 164.603 196.41C165.639 196.41 166.542 196.2 167.312 195.78C168.096 195.346 168.711 194.821 169.159 194.205C169.607 193.575 169.845 192.98 169.873 192.42L171.511 194.667C171.343 195.241 171.056 195.857 170.65 196.515C170.244 197.173 169.712 197.802 169.054 198.404C168.411 198.992 167.634 199.475 166.724 199.853C165.828 200.231 164.792 200.42 163.616 200.42C162.133 200.42 160.81 200.126 159.648 199.538C158.486 198.936 157.577 198.131 156.919 197.124C156.261 196.102 155.932 194.947 155.932 193.659C155.932 192.455 156.156 191.392 156.604 190.468C157.066 189.53 157.738 188.746 158.619 188.116C159.515 187.486 160.607 187.01 161.895 186.688C163.182 186.353 164.652 186.185 166.304 186.185H170.272ZM184.918 167.75V200H179.837V167.75H184.918ZM195.47 167.75V200H190.389V167.75H195.47Z" fill="#FF5454" fill-opacity="0.95"/>
<path d="M210.473 177.282V180.264H198.191V177.282H210.473ZM202.348 171.76H206.232V194.373C206.232 195.143 206.351 195.724 206.589 196.116C206.827 196.508 207.135 196.767 207.513 196.893C207.891 197.019 208.297 197.082 208.731 197.082C209.053 197.082 209.389 197.054 209.739 196.998C210.103 196.928 210.375 196.872 210.557 196.83L210.578 200C210.271 200.098 209.865 200.189 209.361 200.273C208.871 200.371 208.276 200.42 207.576 200.42C206.624 200.42 205.749 200.231 204.951 199.853C204.154 199.475 203.517 198.845 203.041 197.963C202.579 197.068 202.348 195.864 202.348 194.352V171.76ZM218.842 177.282V200H214.937V177.282H218.842ZM214.643 171.256C214.643 170.626 214.832 170.095 215.21 169.661C215.601 169.227 216.175 169.01 216.931 169.01C217.673 169.01 218.24 169.227 218.632 169.661C219.038 170.095 219.241 170.626 219.241 171.256C219.241 171.858 219.038 172.376 218.632 172.81C218.24 173.23 217.673 173.44 216.931 173.44C216.175 173.44 215.601 173.23 215.21 172.81C214.832 172.376 214.643 171.858 214.643 171.256ZM231.577 196.494L237.792 177.282H241.76L233.593 200H230.99L231.577 196.494ZM226.391 177.282L232.795 196.599L233.236 200H230.633L222.402 177.282H226.391ZM254.223 200.42C252.641 200.42 251.207 200.154 249.919 199.622C248.645 199.076 247.546 198.313 246.623 197.333C245.713 196.354 245.013 195.192 244.523 193.848C244.033 192.504 243.788 191.035 243.788 189.439V188.557C243.788 186.709 244.061 185.065 244.607 183.623C245.153 182.167 245.895 180.936 246.832 179.928C247.77 178.92 248.834 178.157 250.024 177.639C251.214 177.121 252.445 176.862 253.719 176.862C255.343 176.862 256.743 177.142 257.918 177.702C259.108 178.262 260.081 179.046 260.837 180.054C261.593 181.048 262.153 182.223 262.517 183.581C262.88 184.925 263.062 186.395 263.062 187.99V189.733H246.098V186.562H259.178V186.269C259.122 185.261 258.912 184.281 258.548 183.329C258.198 182.377 257.638 181.593 256.869 180.978C256.099 180.362 255.049 180.054 253.719 180.054C252.837 180.054 252.026 180.243 251.284 180.621C250.542 180.985 249.905 181.53 249.373 182.258C248.841 182.986 248.428 183.875 248.134 184.925C247.84 185.975 247.693 187.185 247.693 188.557V189.439C247.693 190.517 247.84 191.532 248.134 192.483C248.442 193.421 248.883 194.247 249.457 194.961C250.045 195.675 250.752 196.235 251.578 196.641C252.417 197.047 253.369 197.25 254.433 197.25C255.805 197.25 256.967 196.97 257.918 196.41C258.87 195.85 259.703 195.101 260.417 194.163L262.769 196.032C262.279 196.774 261.656 197.48 260.9 198.152C260.144 198.824 259.213 199.37 258.107 199.79C257.016 200.21 255.721 200.42 254.223 200.42ZM271.074 180.852V200H267.19V177.282H270.969L271.074 180.852ZM278.171 177.156L278.15 180.768C277.828 180.698 277.52 180.656 277.226 180.642C276.946 180.614 276.624 180.6 276.26 180.6C275.364 180.6 274.573 180.74 273.887 181.02C273.201 181.299 272.621 181.691 272.145 182.195C271.669 182.699 271.291 183.301 271.011 184.001C270.745 184.687 270.57 185.443 270.486 186.269L269.394 186.898C269.394 185.527 269.527 184.239 269.793 183.035C270.073 181.831 270.5 180.768 271.074 179.844C271.648 178.906 272.376 178.178 273.257 177.66C274.153 177.128 275.217 176.862 276.449 176.862C276.729 176.862 277.051 176.897 277.415 176.967C277.779 177.023 278.031 177.086 278.171 177.156ZM294.58 193.974C294.58 193.414 294.454 192.896 294.203 192.42C293.965 191.931 293.468 191.49 292.712 191.098C291.97 190.692 290.85 190.342 289.352 190.048C288.093 189.782 286.952 189.467 285.93 189.103C284.922 188.739 284.061 188.298 283.348 187.78C282.648 187.262 282.109 186.653 281.731 185.954C281.353 185.254 281.164 184.435 281.164 183.497C281.164 182.601 281.36 181.754 281.752 180.957C282.158 180.159 282.725 179.452 283.453 178.836C284.194 178.22 285.083 177.737 286.119 177.387C287.155 177.037 288.31 176.862 289.583 176.862C291.403 176.862 292.957 177.184 294.245 177.828C295.532 178.472 296.519 179.333 297.205 180.411C297.891 181.474 298.234 182.657 298.234 183.959H294.349C294.349 183.329 294.161 182.72 293.783 182.132C293.419 181.53 292.88 181.034 292.166 180.642C291.466 180.25 290.605 180.054 289.583 180.054C288.506 180.054 287.631 180.222 286.959 180.558C286.301 180.88 285.818 181.292 285.51 181.796C285.216 182.3 285.069 182.832 285.069 183.392C285.069 183.812 285.139 184.19 285.279 184.526C285.433 184.848 285.699 185.149 286.077 185.429C286.455 185.695 286.987 185.947 287.673 186.185C288.359 186.423 289.233 186.66 290.297 186.898C292.159 187.318 293.692 187.822 294.895 188.41C296.099 188.998 296.995 189.719 297.583 190.573C298.171 191.427 298.465 192.462 298.465 193.68C298.465 194.674 298.255 195.584 297.835 196.41C297.429 197.236 296.834 197.949 296.05 198.551C295.28 199.139 294.356 199.601 293.279 199.937C292.215 200.259 291.018 200.42 289.688 200.42C287.687 200.42 285.993 200.063 284.607 199.349C283.222 198.635 282.172 197.711 281.458 196.578C280.744 195.444 280.387 194.247 280.387 192.987H284.292C284.348 194.051 284.656 194.898 285.216 195.528C285.776 196.144 286.462 196.585 287.274 196.851C288.086 197.103 288.891 197.229 289.688 197.229C290.752 197.229 291.641 197.089 292.355 196.809C293.083 196.529 293.636 196.144 294.014 195.654C294.391 195.164 294.58 194.604 294.58 193.974ZM312.586 200.42C311.004 200.42 309.57 200.154 308.282 199.622C307.008 199.076 305.909 198.313 304.985 197.333C304.076 196.354 303.376 195.192 302.886 193.848C302.396 192.504 302.151 191.035 302.151 189.439V188.557C302.151 186.709 302.424 185.065 302.97 183.623C303.516 182.167 304.258 180.936 305.195 179.928C306.133 178.92 307.197 178.157 308.387 177.639C309.577 177.121 310.808 176.862 312.082 176.862C313.706 176.862 315.106 177.142 316.281 177.702C317.471 178.262 318.444 179.046 319.2 180.054C319.956 181.048 320.516 182.223 320.879 183.581C321.243 184.925 321.425 186.395 321.425 187.99V189.733H304.461V186.562H317.541V186.269C317.485 185.261 317.275 184.281 316.911 183.329C316.561 182.377 316.001 181.593 315.232 180.978C314.462 180.362 313.412 180.054 312.082 180.054C311.2 180.054 310.388 180.243 309.647 180.621C308.905 180.985 308.268 181.53 307.736 182.258C307.204 182.986 306.791 183.875 306.497 184.925C306.203 185.975 306.056 187.185 306.056 188.557V189.439C306.056 190.517 306.203 191.532 306.497 192.483C306.805 193.421 307.246 194.247 307.82 194.961C308.408 195.675 309.115 196.235 309.941 196.641C310.78 197.047 311.732 197.25 312.796 197.25C314.168 197.25 315.33 196.97 316.281 196.41C317.233 195.85 318.066 195.101 318.78 194.163L321.131 196.032C320.642 196.774 320.019 197.48 319.263 198.152C318.507 198.824 317.576 199.37 316.47 199.79C315.378 200.21 314.084 200.42 312.586 200.42Z" fill="#2A2A2A"/>
</svg>
